<?xml version="1.0" encoding="utf-8"?>
<!-- Generator: Adobe Illustrator 18.1.1, SVG Export Plug-In . SVG Version: 6.00 Build 0)  -->
<!DOCTYPE svg PUBLIC "-//W3C//DTD SVG 1.1//EN" "http://www.w3.org/Graphics/SVG/1.1/DTD/svg11.dtd">
<svg version="1.1" xmlns="http://www.w3.org/2000/svg" xmlns:xlink="http://www.w3.org/1999/xlink" x="0px" y="0px"
	 viewBox="0 0 24 24" enable-background="new 0 0 24 24" xml:space="preserve">
<g id="Layer_1">
	<path fill="#3D7634" d="M17.522,5H6.478C5.663,5,5,5.663,5,6.478v11.045C5,18.337,5.663,19,6.478,19h11.045
		C18.337,19,19,18.337,19,17.522V6.478C19,5.663,18.337,5,17.522,5z M18,17.522C18,17.786,17.786,18,17.522,18H6.478
		C6.214,18,6,17.786,6,17.522V6.478C6,6.214,6.214,6,6.478,6h11.045C17.786,6,18,6.214,18,6.478V17.522z"/>
</g>
</svg>
