<?xml version="1.0" encoding="utf-8"?>
<!-- Generator: Adobe Illustrator 18.1.1, SVG Export Plug-In . SVG Version: 6.00 Build 0)  -->
<svg version="1.1" id="Layer_1" xmlns="http://www.w3.org/2000/svg" xmlns:xlink="http://www.w3.org/1999/xlink" x="0px" y="0px"
	 viewBox="0 0 24 24" enable-background="new 0 0 24 24" xml:space="preserve">
<g>
	<path fill="#3D7634" d="M16.5,10.5c-0.3,0-0.5,0.2-0.5,0.5v6.5c0,0.2-0.1,0.5-0.4,0.5h-7C8.3,18,8,17.8,8,17.5V11
		c0-0.3-0.2-0.5-0.5-0.5C7.2,10.5,7,10.7,7,11v6.5C7,18.3,7.7,19,8.6,19h7c0.8,0,1.4-0.6,1.4-1.5V11C17,10.7,16.8,10.5,16.5,10.5z"
		/>
	<path fill="#3D7634" d="M11,16v-5c0-0.3-0.2-0.5-0.5-0.5c-0.3,0-0.5,0.2-0.5,0.5v5c0,0.3,0.2,0.5,0.5,0.5C10.8,16.5,11,16.3,11,16z
		"/>
	<path fill="#3D7634" d="M14,16v-5c0-0.3-0.2-0.5-0.5-0.5c-0.3,0-0.5,0.2-0.5,0.5v5c0,0.3,0.2,0.5,0.5,0.5C13.8,16.5,14,16.3,14,16z
		"/>
	<path fill="#3D7634" d="M17.5,6H15V4.5C15,4.2,14.8,4,14.5,4h-5C9.2,4,9,4.2,9,4.5V6H6.5C6.2,6,6,6.2,6,6.5v2C6,8.8,6.2,9,6.5,9h11
		C17.8,9,18,8.8,18,8.5v-2C18,6.2,17.8,6,17.5,6z M10,5h4v1h-4V5z M17,8H7V7h2.5h5H17V8z"/>
</g>
</svg>
